<?xml version="1.0" encoding="utf-8"?>
<svg viewBox="6.9008 4.782 318.9712 244.1943" width="318.9712" height="244.1943" xmlns="http://www.w3.org/2000/svg">
	<path fill="#F12D59" opacity="1.000000" stroke="none" d="M 116.581 238.983 C 141.521 238.416 165.066 240.103 188.537 237.689 C 226.146 233.818 256.411 220.034 279.876 197.439 C 285.172 192.335 290.382 190.381 299.337 192.497 C 294.213 202.399 284.967 209.705 275.378 216.545 C 244.753 238.387 208.194 248.856 166.578 248.916 C 119.013 248.983 71.449 248.889 23.884 248.976 C 14.295 248.994 6.855 248.096 6.901 238.441 C 7.138 187.41 7.014 136.378 7.969 85.227 C 14.687 96.954 19.972 108.785 19.86 121.911 C 19.551 157.437 20.041 192.97 19.539 228.496 C 19.427 236.498 21.769 239.467 32.988 239.198 C 60.348 238.541 87.754 238.983 116.581 238.983 Z" style=""/>
	<path fill="#64C5CC" opacity="1.000000" stroke="none" d="M 77.735 140.018 C 85.42 139.364 83.77 134.24 85.348 130.715 C 90.964 118.176 95.961 105.469 101.312 92.858 C 103.871 86.829 118.422 82.714 125.57 85.769 C 129.474 87.436 127.056 89.467 126.312 91.318 C 116.238 116.313 106.17 141.311 95.938 166.266 C 93.367 172.539 87.546 176.361 78.874 176.081 C 70.159 175.801 65.281 171.37 62.777 165.175 C 53.384 141.946 43.806 118.762 34.696 95.469 C 33.525 92.472 27.178 86.967 35.371 86.163 C 42.211 85.489 53.061 80.896 57.117 90.769 C 63.758 106.938 70.399 123.104 77.735 140.018 Z" style=""/>
	<path fill="#E92C56" opacity="1.000000" stroke="none" d="M 249.072 61.161 C 249.075 45.637 249.262 31.208 249.008 16.784 C 248.858 8.377 253.78 4.642 264.635 4.786 C 279.518 4.982 294.409 4.911 309.295 4.811 C 319.438 4.744 324.218 8.431 324.201 16.255 C 324.123 52.877 324.576 89.505 323.788 126.118 C 323.638 133.082 318.971 140.044 315.944 146.891 C 314.617 149.895 313.544 152.697 316.989 154.946 C 318.091 155.664 320.849 155.593 322.378 155.068 C 326.956 153.495 326.033 150.384 325.138 147.48 C 319.646 129.673 321.14 111.551 320.878 93.5 C 320.817 89.421 322.914 84.685 314.375 83.021 C 308.998 81.972 311.216 77.343 311.176 74.29 C 310.96 57.274 310.726 40.25 311.228 23.244 C 311.427 16.479 308.559 14.566 299.781 14.457 C 261.606 13.984 261.624 13.755 261.606 43.543 C 261.601 56.121 261.73 68.701 261.312 81.272 C 261.237 83.556 263.063 88.089 256.852 87.629 C 252.614 87.316 248.83 85.532 249.031 81.121 C 249.317 74.841 249.083 68.545 249.072 61.161 Z" style=""/>
	<path fill="#63C4CA" opacity="1.000000" stroke="none" d="M 207.323 115.153 C 198.112 122.153 202.321 130.311 201.813 137.782 C 201.444 143.202 200.013 145.617 192.088 145.655 C 183.881 145.693 180.771 143.724 181.484 137.431 C 182.02 132.655 181.544 127.815 181.735 123.009 C 181.821 120.802 182.159 118.558 182.828 116.413 C 187.262 102.178 203.46 96.872 235.507 99.069 C 252.035 100.203 263.36 108.56 263.868 121.256 C 264.506 137.153 263.929 153.075 264.211 168.984 C 264.312 174.613 261.759 176.666 254.175 176.468 C 247.104 176.281 243.686 175.101 243.888 168.995 C 244.338 155.311 243.23 141.58 244.263 127.933 C 245.102 116.891 239.31 113.218 225.855 114.456 C 220.163 114.978 214.347 114.716 207.323 115.153 Z" style=""/>
	<path fill="#F12D59" opacity="1.000000" stroke="none" d="M 82.627 69.616 C 82.627 77.252 82.627 83.845 82.627 90.438 C 81.45 90.585 80.276 90.734 79.099 90.883 C 74.512 82.832 70.142 74.754 70.208 65.488 C 70.306 51.452 69.856 37.408 70.396 23.384 C 70.644 16.917 68.821 13.839 59.422 14.455 C 49.902 15.079 40.209 15.064 30.683 14.462 C 21.247 13.866 19.395 17.119 19.623 23.499 C 20.09 36.417 19.854 49.352 19.675 62.279 C 19.629 65.625 21.446 69.987 13.528 70.181 C 5.577 70.374 7.066 66.165 7.045 62.699 C 6.967 47.186 7.083 31.672 6.988 16.159 C 6.939 8.246 12.166 4.84 22.09 4.882 C 37.431 4.948 52.778 4.96 68.12 4.882 C 78.378 4.828 82.772 8.693 82.682 16.495 C 82.477 33.855 82.624 51.214 82.627 69.616 Z" style=""/>
	<path fill="#64C5CC" opacity="1.000000" stroke="none" d="M 145.277 104.038 C 148.456 95.469 156.328 99.298 161.928 99.465 C 167.412 99.627 165.277 104.085 165.3 106.685 C 165.482 127.378 165.179 148.073 165.542 168.764 C 165.646 174.577 163.131 176.335 155.662 176.466 C 147.449 176.61 144.956 174.566 145.086 168.279 C 145.525 147.222 145.256 126.158 145.277 104.038 Z" style=""/>
	<path fill="#63C4CA" opacity="1.000000" stroke="none" d="M 300.972 108.385 C 300.972 128.66 300.765 147.875 301.094 167.086 C 301.197 173.108 300.341 176.604 290.515 176.546 C 281.356 176.493 280.637 173.299 280.709 167.746 C 280.981 147.426 280.963 127.1 280.715 106.78 C 280.652 101.66 281.272 98.714 289.722 98.738 C 298.261 98.763 302.573 100.263 300.972 108.385 Z" style=""/>
	<path fill="#E92C56" opacity="1.000000" stroke="none" d="M 139.619 191.963 C 163.526 191.963 185.981 191.963 211.768 191.963 C 198.074 198.661 185.41 200.677 172.642 200.906 C 142.989 201.432 113.313 201.099 83.646 201.263 C 78.45 201.292 73.869 200.581 71.61 196.786 C 70.093 194.237 68.223 191.277 75.528 191.315 C 96.411 191.428 117.311 190.368 139.619 191.963 Z" style=""/>
	<path fill="#63C4CA" opacity="1.000000" stroke="none" d="M 181.888 153.886 C 198.236 147.515 202.104 148.924 201.282 161.286 C 200.95 166.259 207.112 173.899 195.853 176.015 C 188.517 177.395 180.03 177.526 181.475 167.97 C 182.13 163.639 181.648 159.206 181.888 153.886 Z" style=""/>
	<path fill="#E92C56" opacity="1.000000" stroke="none" d="M 223.752 182.006 C 223.013 183.008 223.458 186.424 221.516 183.326 C 220.616 181.888 219.881 179.193 222.54 177.508 C 222.959 178.835 223.374 180.159 223.752 182.006 Z" style=""/>
</svg>